<svg version="1.1" id="Layer_1" xmlns="http://www.w3.org/2000/svg" xmlns:xlink="http://www.w3.org/1999/xlink" x="0px" y="0px"
	 width="100%" viewBox="0 0 1024 994" enable-background="new 0 0 1024 994" xml:space="preserve">
<path fill="#FFFFFF" opacity="1.000000" stroke="none" 
	d="
M445.000000,0.999995 
	C490.020905,1.000000 535.041809,1.000000 580.228760,1.374839 
	C584.540955,2.832211 588.644897,4.131490 592.842957,4.946089 
	C599.022400,6.145166 605.277649,6.947877 611.484619,8.012677 
	C618.473816,9.211659 625.498718,10.277678 632.408447,11.841720 
	C638.639465,13.252137 644.708740,15.361306 650.899414,16.969486 
	C656.647217,18.462603 662.569580,19.356983 668.219116,21.137051 
	C675.535645,23.442368 682.651917,26.380762 689.865356,29.016581 
	C697.420776,31.777355 705.121887,34.190067 712.516113,37.327911 
	C720.506958,40.718983 728.249207,44.706799 736.037109,48.561310 
	C741.111816,51.072987 746.082153,53.796593 751.085205,56.451664 
	C757.069153,59.627232 763.056274,62.797615 769.008728,66.031555 
	C775.266235,69.431236 781.639404,72.654938 787.672363,76.419838 
	C792.807129,79.624199 797.412537,83.665932 802.466003,87.014351 
	C808.367310,90.924561 814.979797,93.897995 820.416077,98.339798 
	C827.762634,104.342407 834.658813,110.812874 842.408875,116.431221 
	C849.617004,121.656715 855.507751,128.695984 862.032898,134.879349 
	C862.286743,135.119858 863.105652,134.764053 863.702087,134.680374 
	C864.560730,137.449188 864.865662,137.031464 869.587891,140.478638 
	C873.201843,143.116882 875.936096,146.967285 879.033081,150.305023 
	C884.661987,156.371552 890.262512,162.464462 895.888672,168.533524 
	C900.520508,173.530060 905.442200,178.287460 909.745361,183.551437 
	C914.873047,189.824081 919.487976,196.516647 924.302795,203.043747 
	C925.738770,204.990433 927.088074,207.000854 928.497498,208.967377 
	C931.198730,212.736282 934.007446,216.431931 936.601624,220.272736 
	C940.148254,225.523682 943.495728,230.908691 947.005920,236.184814 
	C949.556030,240.017975 952.573853,243.582199 954.755005,247.606720 
	C956.955261,251.666412 957.722778,256.589752 960.265930,260.360535 
	C968.712830,272.884735 974.952942,286.488037 980.984619,300.228760 
	C982.313538,303.256226 983.577698,306.312195 984.803284,309.194214 
	C984.784668,309.211670 985.208557,308.813568 985.601562,308.444458 
	C992.573975,327.962097 999.556213,347.507233 1006.538452,367.052368 
	C1006.094299,367.234589 1005.650146,367.416809 1005.205933,367.599030 
	C1005.740112,367.194550 1006.274292,366.790100 1006.667908,366.492065 
	C1006.995178,368.389038 1007.187866,370.344666 1007.682495,372.220734 
	C1009.397095,378.724518 1011.304077,385.178375 1012.966309,391.694977 
	C1014.116211,396.203003 1015.149597,400.754486 1015.937988,405.337677 
	C1017.097656,412.079041 1018.003601,418.864380 1018.985474,425.635620 
	C1019.104004,426.453003 1018.951233,427.307587 1019.046265,428.130829 
	C1020.351624,439.435669 1021.677856,450.738098 1023.000671,462.040924 
	C1023.152405,463.337860 1023.273682,464.641876 1023.535828,465.916534 
	C1023.561218,466.039551 1024.490356,465.976624 1025.000000,466.000000 
	C1025.000000,495.354218 1025.000000,524.708435 1024.617676,554.228271 
	C1023.156921,561.045532 1021.960388,567.680725 1021.028748,574.352905 
	C1019.767151,583.387573 1020.480591,592.611389 1017.179016,601.483154 
	C1015.243530,606.684143 1015.158508,612.549683 1013.966431,618.056885 
	C1012.100464,626.676514 1010.133118,635.279114 1007.962830,643.826416 
	C1005.993408,651.582581 1003.930054,659.330750 1001.479431,666.944458 
	C998.781372,675.327271 995.558960,683.540344 992.652649,691.857910 
	C992.126465,693.363708 992.300171,695.136658 991.677307,696.582153 
	C988.536499,703.870178 985.238892,711.090515 982.143799,718.005371 
	C982.214417,718.100647 981.865051,717.629456 982.119812,717.973083 
	C979.793274,722.687805 977.479065,727.579224 974.989990,732.379944 
	C969.718079,742.548035 964.497131,752.746887 958.982178,762.783020 
	C954.920532,770.174377 950.383484,777.303101 946.148682,784.601379 
	C944.779297,786.961365 943.886536,789.608398 942.427307,791.902588 
	C941.087463,794.009338 939.135864,795.719543 937.715149,797.784302 
	C936.171997,800.027039 935.430054,803.706604 933.428528,804.519836 
	C931.035095,805.492554 932.370544,808.347473 929.251648,809.218079 
	C926.547485,809.972961 925.188477,815.102783 922.959778,818.094055 
	C917.728149,825.115784 912.404480,832.072815 906.949036,838.921387 
	C905.636536,840.569092 903.388428,841.464478 902.046448,843.096985 
	C896.945435,849.302185 892.527588,856.143860 886.948914,861.864624 
	C878.001465,871.039917 868.341187,879.520752 858.967102,888.278931 
	C854.641968,892.319885 850.371826,896.426575 845.914917,900.318115 
	C839.488525,905.929382 833.194153,911.753052 826.330688,916.786987 
	C818.337219,922.649658 809.694641,927.618347 801.511902,933.234558 
	C793.637268,938.639282 786.327637,944.942078 778.152039,949.813477 
	C769.166565,955.167542 759.497803,959.382812 750.086121,964.011597 
	C739.815796,969.062744 729.521851,974.067383 719.186340,978.983459 
	C716.603638,980.211914 713.794922,980.955505 711.136780,982.036804 
	C703.859009,984.997559 696.559448,987.913574 689.373962,991.086121 
	C687.392822,991.960815 685.781189,993.672424 684.000000,995.000000 
	C673.645752,995.000000 663.291565,995.000000 652.763245,994.672607 
	C643.550415,989.681702 639.127197,981.801880 639.122986,972.093689 
	C639.110657,943.676941 640.180725,915.253967 639.852722,886.844666 
	C639.536438,859.448364 642.455078,831.905884 637.012390,804.675842 
	C635.940002,799.310974 635.367249,793.819763 633.927002,788.561279 
	C631.945557,781.327087 629.763245,774.093079 626.929260,767.160645 
	C623.166504,757.956604 617.589783,749.818787 610.450317,742.778259 
	C607.362183,739.732971 604.364807,736.435120 606.148804,732.001953 
	C611.256836,730.972839 616.108765,729.482117 621.046021,729.103760 
	C632.545654,728.222534 643.855652,726.706665 654.869751,723.076965 
	C659.267639,721.627625 663.947449,721.044556 668.484497,720.004211 
	C675.057129,718.496887 681.818298,717.500244 688.134033,715.257874 
	C697.337585,711.990112 706.254150,707.894470 715.222473,703.989807 
	C722.676392,700.744690 730.508118,698.023254 737.313782,693.713684 
	C747.582886,687.210876 757.277527,679.748779 766.867554,672.248474 
	C771.392090,668.709839 775.106445,664.135315 779.379089,659.837891 
	C778.919189,659.784607 779.779541,660.106750 779.973450,659.873901 
	C783.811646,655.265808 787.639404,650.645630 791.330200,645.919250 
	C794.962891,641.267273 798.843384,636.737671 801.880554,631.710571 
	C805.371277,625.932983 808.221436,619.744629 811.052673,613.597717 
	C815.823669,603.239258 820.792603,592.937439 824.846008,582.294861 
	C827.621948,575.006104 829.384338,567.257751 830.889709,559.575684 
	C833.242310,547.570374 835.192322,535.475464 836.913757,523.361755 
	C837.744751,517.513794 838.105164,511.522705 837.918274,505.620514 
	C837.341492,487.410034 839.985840,469.044617 835.077271,451.019958 
	C833.348206,444.670593 832.754211,438.017975 831.156250,431.625244 
	C829.809509,426.237671 827.745361,421.030518 826.025146,415.734924 
	C824.592529,411.324432 823.739441,406.628143 821.674927,402.540619 
	C817.298645,393.876190 812.660522,385.295837 807.440674,377.121033 
	C803.349548,370.713898 798.024048,365.108734 793.615662,358.886078 
	C789.837463,353.552826 783.297974,349.044464 786.997070,340.889709 
	C787.674622,339.396210 788.565186,337.950897 788.954529,336.383301 
	C791.039185,327.989777 793.267944,319.616486 794.891663,311.130005 
	C795.811279,306.323700 795.973022,301.311462 795.938843,296.395691 
	C795.856567,284.552887 795.798279,272.835266 793.417664,260.972809 
	C791.517334,251.503387 789.851501,242.028381 787.003784,232.782608 
	C785.640381,228.356033 784.898254,223.621323 782.819580,219.567169 
	C781.013977,216.045639 778.626160,211.978607 773.220947,212.985672 
	C769.263672,213.722992 765.278931,214.311768 761.311523,214.996262 
	C755.594421,215.982620 749.847717,216.835449 744.177490,218.044678 
	C739.011597,219.146378 733.982117,220.913742 728.800781,221.911362 
	C720.457581,223.517792 712.986877,227.100922 705.517395,230.940018 
	C694.661255,236.519699 683.358459,241.270920 672.723938,247.228333 
	C663.920959,252.159760 655.858582,258.401703 647.356689,263.890564 
	C645.233765,265.261139 642.711304,266.678589 640.318665,266.778015 
	C637.933777,266.877075 635.518127,265.208191 633.051575,264.559021 
	C625.767334,262.642029 618.477173,260.733765 611.138916,259.040771 
	C605.966309,257.847473 600.728455,256.908539 595.489075,256.040558 
	C588.786377,254.930099 582.053894,253.998566 575.332458,253.002090 
	C566.971741,251.762589 558.536926,251.809509 550.094604,250.427185 
	C537.961609,248.440582 525.194824,247.989151 512.991211,249.404800 
	C499.920685,250.921005 486.834595,248.268372 473.719971,251.627579 
	C465.570770,253.714935 456.592438,252.162582 448.092926,254.820496 
	C441.990326,256.728851 435.366852,256.948608 428.990906,258.012634 
	C423.428223,258.940948 417.869904,259.912323 412.340363,261.018127 
	C406.193878,262.247314 400.080658,263.643463 393.955902,264.980255 
	C390.985809,265.628479 387.468964,267.652649 385.165527,266.705322 
	C379.528442,264.386963 374.405609,260.779572 369.163086,257.549377 
	C361.408875,252.771561 353.890686,247.586868 345.968292,243.113266 
	C339.681824,239.563446 332.953583,236.790833 326.396515,233.726685 
	C318.086487,229.843369 309.915039,225.589432 301.375519,222.294388 
	C294.383698,219.596542 287.028168,217.636261 279.672791,216.142395 
	C272.062866,214.596848 264.281128,213.659882 256.529205,213.161072 
	C253.150436,212.943680 249.658646,214.482819 246.943008,215.068039 
	C244.505646,221.414383 241.881058,227.117645 240.131927,233.077850 
	C237.740051,241.228165 235.827087,249.534042 234.055466,257.847107 
	C232.314728,266.015289 234.398422,274.611420 231.158096,282.738922 
	C230.145111,285.279694 231.000244,288.565247 231.000244,291.686401 
	C231.778412,291.181274 232.301117,290.841980 233.000000,290.388306 
	C233.000000,295.654327 232.850113,300.658783 233.045837,305.649628 
	C233.212433,309.897400 233.356323,314.222870 234.270630,318.345337 
	C235.451248,323.668518 237.348602,328.836670 239.017746,334.045807 
	C239.797134,336.478180 241.235748,338.794189 241.528732,341.263428 
	C241.891830,344.323456 242.527466,348.294373 241.016693,350.449951 
	C237.082535,356.063202 231.525558,360.535553 227.563660,366.133728 
	C221.939301,374.080933 216.464005,382.286774 212.201416,391.006073 
	C206.798126,402.058685 202.399826,413.634735 198.103043,425.184082 
	C195.544067,432.062408 193.436096,439.221222 192.163528,446.437073 
	C190.556229,455.550903 189.255737,464.845490 189.186005,474.072418 
	C189.094559,486.174652 190.787872,498.283722 190.873291,510.395782 
	C190.960251,522.726929 192.510056,534.802979 194.989120,546.805298 
	C196.513794,554.187012 198.297760,561.515808 200.004395,568.859192 
	C201.202774,574.015686 202.202454,579.239685 203.781570,584.279846 
	C205.165756,588.697815 207.205933,592.913086 209.005554,597.197205 
	C211.641632,603.472717 214.018250,609.882202 217.069824,615.950867 
	C220.012894,621.803772 223.480164,627.422058 227.069702,632.912964 
	C230.758087,638.555054 234.681686,644.069275 238.855957,649.360474 
	C242.889359,654.473145 247.308655,659.288940 251.686966,664.118591 
	C253.865646,666.521973 256.178375,668.855286 258.699646,670.886169 
	C264.388550,675.468506 270.153900,679.968140 276.061920,684.262329 
	C280.781616,687.692810 285.549713,691.157837 290.671295,693.909546 
	C297.603027,697.633972 304.874847,700.731201 312.034851,704.023438 
	C320.066833,707.716553 327.939789,711.884583 336.244629,714.819580 
	C344.829926,717.853638 353.809204,719.829285 362.692413,721.948120 
	C371.974335,724.162048 381.284485,726.389465 390.697723,727.884277 
	C400.170410,729.388550 409.784882,730.000488 419.337952,730.996765 
	C420.132721,731.079651 420.932709,731.112671 422.068878,731.192688 
	C421.939178,733.538269 422.588684,736.182373 421.559631,737.647644 
	C418.715393,741.697327 415.219299,745.298950 411.889740,748.995667 
	C407.740387,753.602539 404.117950,758.534973 401.924774,764.390198 
	C399.573730,770.666809 397.075562,776.898193 395.009216,783.268555 
	C393.087860,789.192200 391.322998,795.208862 390.131927,801.309998 
	C389.493317,804.581238 389.669159,807.561340 385.059753,807.088379 
	C384.033173,806.983093 382.907318,807.661743 381.852203,808.047852 
	C374.639709,810.687378 367.532593,813.672546 360.192474,815.886414 
	C354.980499,817.458313 349.478363,818.693787 344.068420,818.859131 
	C331.091431,819.255676 318.049835,819.699829 305.231964,816.680664 
	C303.502350,816.273254 301.502838,816.609436 299.956665,815.892761 
	C291.660004,812.047485 283.330109,808.231750 275.292114,803.886963 
	C270.729767,801.420959 265.914856,798.645630 262.593964,794.813416 
	C254.491302,785.463318 245.102234,777.057312 239.723297,765.509888 
	C238.223511,762.290222 236.007553,759.337952 233.764664,756.548889 
	C231.413910,753.625671 228.756470,750.916504 226.005890,748.358032 
	C223.858383,746.360535 223.157852,743.055176 220.043243,741.932129 
	C219.710556,741.812195 219.887955,740.477478 219.508698,740.257080 
	C212.044647,735.920288 206.784531,728.963318 199.526962,724.086426 
	C191.674026,718.809448 183.346527,715.729492 174.792618,713.300293 
	C168.308304,711.458923 161.004135,711.691711 154.155884,712.208557 
	C148.921387,712.603638 143.829453,714.887512 138.845947,716.283081 
	C140.767792,725.760986 147.872086,729.273804 153.431229,733.868835 
	C158.946304,738.427429 165.614944,741.587646 171.146057,746.130188 
	C179.071579,752.639221 185.320847,760.780273 191.040939,769.292847 
	C194.874344,774.997803 198.889084,780.582764 202.642075,786.339111 
	C204.932693,789.852478 207.179779,793.454224 208.899155,797.263367 
	C210.648514,801.139038 211.365799,805.487915 213.176529,809.327026 
	C216.556808,816.493896 220.232147,823.537231 224.121490,830.442200 
	C226.191406,834.117004 228.573105,837.783264 231.515518,840.760132 
	C235.889893,845.185486 240.899231,848.980957 245.614105,853.072510 
	C253.422653,859.848694 262.827667,863.886047 272.138123,867.856506 
	C278.568085,870.598511 285.479034,872.468018 292.351532,873.849182 
	C300.126282,875.411682 308.095825,876.790405 315.985138,876.814758 
	C328.120605,876.852112 340.259949,875.668884 352.397400,874.999023 
	C358.481781,874.663330 364.607178,874.644897 370.637207,873.878601 
	C375.983398,873.199219 381.223358,871.683716 387.000000,870.431091 
	C387.000000,872.983704 387.000000,874.622986 387.000000,876.262207 
	C387.000000,907.259705 386.811676,938.259155 387.122650,969.253540 
	C387.208282,977.790955 384.630463,984.866150 379.321686,991.224792 
	C378.247772,992.511047 377.108948,993.743042 376.000000,995.000000 
	C364.979095,995.000000 353.958221,995.000000 342.765320,994.656494 
	C335.082184,991.199158 327.591125,988.035583 320.053680,984.986694 
	C313.822083,982.466003 307.373444,980.423767 301.310760,977.556824 
	C291.618347,972.973328 282.132935,967.945435 272.622009,962.986633 
	C264.053467,958.519287 255.359085,954.237915 247.103104,949.241699 
	C238.320786,943.927124 230.012939,937.832092 221.451706,932.147339 
	C215.079651,927.916382 208.116653,924.401855 202.350540,919.475342 
	C194.973297,913.172424 187.909241,906.616089 179.858948,901.054993 
	C173.766296,896.846191 168.722183,891.113220 163.242325,886.025269 
	C156.819000,880.061157 150.097366,874.372498 144.110870,867.995728 
	C137.031677,860.454956 130.655075,852.258301 123.846741,844.456909 
	C122.230057,842.604492 119.749077,841.466125 118.279007,839.532837 
	C112.005463,831.282715 106.056923,822.785706 99.802094,814.520874 
	C95.376961,808.673645 90.334862,803.274963 86.143555,797.274231 
	C81.509705,790.639832 77.231125,783.712402 73.335220,776.617493 
	C66.675072,764.488464 60.384327,752.154907 54.042698,739.853455 
	C51.760860,735.427124 49.781303,730.844971 47.661140,726.335266 
	C44.089893,718.738831 40.287643,711.240417 37.015656,703.517273 
	C34.341492,697.205200 32.362213,690.601929 29.959452,684.170837 
	C27.381187,677.270020 24.480776,670.484497 22.068504,663.528137 
	C19.817698,657.037415 17.702251,650.464905 16.110441,643.789429 
	C14.202082,635.786438 12.911740,627.636108 11.386971,619.721863 
	C11.282320,619.794861 10.724189,620.183960 10.520396,620.326050 
	C9.345329,612.232178 8.109170,604.047485 6.978982,595.848206 
	C5.605952,585.887085 4.369480,575.906921 2.930755,565.955688 
	C2.778049,564.899475 1.666644,563.981873 1.000001,563.000000 
	C1.000000,527.979126 1.000000,492.958221 1.381038,457.771667 
	C2.174349,456.593048 2.814816,455.612091 2.962340,454.561920 
	C4.021968,447.018829 5.038141,439.468445 5.940309,431.905151 
	C6.233366,429.448303 5.874474,426.900635 6.280617,424.472626 
	C7.667570,416.181091 9.262299,407.924347 10.745011,399.833008 
	C10.726714,399.820221 11.280631,400.207306 10.880537,399.927704 
	C14.710950,385.055115 18.634768,369.819824 22.541010,354.652802 
	C22.733448,354.802185 23.260118,355.211029 23.774788,355.610565 
	C24.283340,352.197449 24.787233,348.815613 25.434704,344.470184 
	C25.953640,345.404724 26.238316,345.917389 26.360243,346.136993 
	C29.051720,337.796692 31.842196,329.149628 34.636692,320.490082 
	C34.877308,320.822052 35.221962,321.297546 35.078934,321.100220 
	C36.313465,318.542877 37.781799,315.879639 38.912182,313.079926 
	C41.183800,307.453613 43.182072,301.716858 45.460480,296.093475 
	C47.570786,290.884979 49.574326,285.591278 52.214363,280.650055 
	C55.487671,274.523529 59.421722,268.753082 62.964066,262.765961 
	C64.857376,259.566010 66.542801,256.242157 68.293617,252.959061 
	C70.093582,249.583786 71.160675,245.390976 73.847809,243.042831 
	C76.243134,240.949692 75.793808,237.849106 78.660263,235.714005 
	C82.191086,233.084030 83.384720,227.493713 86.057701,223.496597 
	C91.144287,215.890274 96.403862,208.386551 101.895279,201.068100 
	C106.422211,195.035034 111.325684,189.279037 116.176682,183.496231 
	C120.707031,178.095657 125.258705,172.701996 130.040878,167.526962 
	C134.356918,162.856354 138.993805,158.481918 143.496338,153.984009 
	C147.555740,149.928741 151.565170,145.821075 155.702850,141.847092 
	C162.948685,134.887924 170.054047,127.757652 177.637344,121.182358 
	C183.986923,115.676773 191.791855,111.643921 197.381195,105.524002 
	C203.201569,99.151123 210.878082,95.818893 217.164612,90.412712 
	C219.418747,88.474251 221.766647,86.571739 224.314453,85.062546 
	C230.281601,81.527885 236.459747,78.349937 242.434082,74.826782 
	C250.289795,70.194160 257.989532,65.297272 265.838806,60.653427 
	C270.484253,57.905048 275.235779,55.322773 280.034668,52.850246 
	C286.585175,49.475227 293.128937,46.056877 299.857574,43.066685 
	C305.841675,40.407372 312.072113,38.301857 318.196808,35.959713 
	C323.425293,33.960304 328.635010,31.908756 333.896057,29.998732 
	C338.105896,28.470343 342.400421,27.176516 346.621613,25.677853 
	C353.709259,23.161522 360.698425,20.343361 367.863983,18.079355 
	C372.744293,16.537384 377.879211,15.820606 382.856232,14.560744 
	C389.839966,12.792909 396.756409,10.756165 403.752045,9.039863 
	C408.587677,7.853492 413.478424,6.818031 418.398102,6.064919 
	C426.088440,4.887664 433.833893,4.072902 441.530457,2.931938 
	C442.755493,2.750333 443.846832,1.666634 445.000000,0.999995 
z"/>
<path fill="#000000" opacity="1.000000" stroke="none" 
	d="
M376.468689,995.000000 
	C377.108948,993.743042 378.247772,992.511047 379.321686,991.224792 
	C384.630463,984.866150 387.208282,977.790955 387.122650,969.253540 
	C386.811676,938.259155 387.000000,907.259705 387.000000,876.262207 
	C387.000000,874.622986 387.000000,872.983704 387.000000,870.431091 
	C381.223358,871.683716 375.983398,873.199219 370.637207,873.878601 
	C364.607178,874.644897 358.481781,874.663330 352.397400,874.999023 
	C340.259949,875.668884 328.120605,876.852112 315.985138,876.814758 
	C308.095825,876.790405 300.126282,875.411682 292.351532,873.849182 
	C285.479034,872.468018 278.568085,870.598511 272.138123,867.856506 
	C262.827667,863.886047 253.422653,859.848694 245.614105,853.072510 
	C240.899231,848.980957 235.889893,845.185486 231.515518,840.760132 
	C228.573105,837.783264 226.191406,834.117004 224.121490,830.442200 
	C220.232147,823.537231 216.556808,816.493896 213.176529,809.327026 
	C211.365799,805.487915 210.648514,801.139038 208.899155,797.263367 
	C207.179779,793.454224 204.932693,789.852478 202.642075,786.339111 
	C198.889084,780.582764 194.874344,774.997803 191.040939,769.292847 
	C185.320847,760.780273 179.071579,752.639221 171.146057,746.130188 
	C165.614944,741.587646 158.946304,738.427429 153.431229,733.868835 
	C147.872086,729.273804 140.767792,725.760986 138.845947,716.283081 
	C143.829453,714.887512 148.921387,712.603638 154.155884,712.208557 
	C161.004135,711.691711 168.308304,711.458923 174.792618,713.300293 
	C183.346527,715.729492 191.674026,718.809448 199.526962,724.086426 
	C206.784531,728.963318 212.044647,735.920288 219.508698,740.257080 
	C219.887955,740.477478 219.710556,741.812195 220.043243,741.932129 
	C223.157852,743.055176 223.858383,746.360535 226.005890,748.358032 
	C228.756470,750.916504 231.413910,753.625671 233.764664,756.548889 
	C236.007553,759.337952 238.223511,762.290222 239.723297,765.509888 
	C245.102234,777.057312 254.491302,785.463318 262.593964,794.813416 
	C265.914856,798.645630 270.729767,801.420959 275.292114,803.886963 
	C283.330109,808.231750 291.660004,812.047485 299.956665,815.892761 
	C301.502838,816.609436 303.502350,816.273254 305.231964,816.680664 
	C318.049835,819.699829 331.091431,819.255676 344.068420,818.859131 
	C349.478363,818.693787 354.980499,817.458313 360.192474,815.886414 
	C367.532593,813.672546 374.639709,810.687378 381.852203,808.047852 
	C382.907318,807.661743 384.033173,806.983093 385.059753,807.088379 
	C389.669159,807.561340 389.493317,804.581238 390.131927,801.309998 
	C391.322998,795.208862 393.087860,789.192200 395.009216,783.268555 
	C397.075562,776.898193 399.573730,770.666809 401.924774,764.390198 
	C404.117950,758.534973 407.740387,753.602539 411.889740,748.995667 
	C415.219299,745.298950 418.715393,741.697327 421.559631,737.647644 
	C422.588684,736.182373 421.939178,733.538269 422.068878,731.192688 
	C420.932709,731.112671 420.132721,731.079651 419.337952,730.996765 
	C409.784882,730.000488 400.170410,729.388550 390.697723,727.884277 
	C381.284485,726.389465 371.974335,724.162048 362.692413,721.948120 
	C353.809204,719.829285 344.829926,717.853638 336.244629,714.819580 
	C327.939789,711.884583 320.066833,707.716553 312.034851,704.023438 
	C304.874847,700.731201 297.603027,697.633972 290.671295,693.909546 
	C285.549713,691.157837 280.781616,687.692810 276.061920,684.262329 
	C270.153900,679.968140 264.388550,675.468506 258.699646,670.886169 
	C256.178375,668.855286 253.865646,666.521973 251.686966,664.118591 
	C247.308655,659.288940 242.889359,654.473145 238.855957,649.360474 
	C234.681686,644.069275 230.758087,638.555054 227.069702,632.912964 
	C223.480164,627.422058 220.012894,621.803772 217.069824,615.950867 
	C214.018250,609.882202 211.641632,603.472717 209.005554,597.197205 
	C207.205933,592.913086 205.165756,588.697815 203.781570,584.279846 
	C202.202454,579.239685 201.202774,574.015686 200.004395,568.859192 
	C198.297760,561.515808 196.513794,554.187012 194.989120,546.805298 
	C192.510056,534.802979 190.960251,522.726929 190.873291,510.395782 
	C190.787872,498.283722 189.094559,486.174652 189.186005,474.072418 
	C189.255737,464.845490 190.556229,455.550903 192.163528,446.437073 
	C193.436096,439.221222 195.544067,432.062408 198.103043,425.184082 
	C202.399826,413.634735 206.798126,402.058685 212.201416,391.006073 
	C216.464005,382.286774 221.939301,374.080933 227.563660,366.133728 
	C231.525558,360.535553 237.082535,356.063202 241.016693,350.449951 
	C242.527466,348.294373 241.891830,344.323456 241.528732,341.263428 
	C241.235748,338.794189 239.797134,336.478180 239.017746,334.045807 
	C237.348602,328.836670 235.451248,323.668518 234.270630,318.345337 
	C233.356323,314.222870 233.212433,309.897400 233.045837,305.649628 
	C232.850113,300.658783 233.000000,295.654327 233.000000,290.388306 
	C232.301117,290.841980 231.778412,291.181274 231.000244,291.686401 
	C231.000244,288.565247 230.145111,285.279694 231.158096,282.738922 
	C234.398422,274.611420 232.314728,266.015289 234.055466,257.847107 
	C235.827087,249.534042 237.740051,241.228165 240.131927,233.077850 
	C241.881058,227.117645 244.505646,221.414383 246.943008,215.068039 
	C249.658646,214.482819 253.150436,212.943680 256.529205,213.161072 
	C264.281128,213.659882 272.062866,214.596848 279.672791,216.142395 
	C287.028168,217.636261 294.383698,219.596542 301.375519,222.294388 
	C309.915039,225.589432 318.086487,229.843369 326.396515,233.726685 
	C332.953583,236.790833 339.681824,239.563446 345.968292,243.113266 
	C353.890686,247.586868 361.408875,252.771561 369.163086,257.549377 
	C374.405609,260.779572 379.528442,264.386963 385.165527,266.705322 
	C387.468964,267.652649 390.985809,265.628479 393.955902,264.980255 
	C400.080658,263.643463 406.193878,262.247314 412.340363,261.018127 
	C417.869904,259.912323 423.428223,258.940948 428.990906,258.012634 
	C435.366852,256.948608 441.990326,256.728851 448.092926,254.820496 
	C456.592438,252.162582 465.570770,253.714935 473.719971,251.627579 
	C486.834595,248.268372 499.920685,250.921005 512.991211,249.404800 
	C525.194824,247.989151 537.961609,248.440582 550.094604,250.427185 
	C558.536926,251.809509 566.971741,251.762589 575.332458,253.002090 
	C582.053894,253.998566 588.786377,254.930099 595.489075,256.040558 
	C600.728455,256.908539 605.966309,257.847473 611.138916,259.040771 
	C618.477173,260.733765 625.767334,262.642029 633.051575,264.559021 
	C635.518127,265.208191 637.933777,266.877075 640.318665,266.778015 
	C642.711304,266.678589 645.233765,265.261139 647.356689,263.890564 
	C655.858582,258.401703 663.920959,252.159760 672.723938,247.228333 
	C683.358459,241.270920 694.661255,236.519699 705.517395,230.940018 
	C712.986877,227.100922 720.457581,223.517792 728.800781,221.911362 
	C733.982117,220.913742 739.011597,219.146378 744.177490,218.044678 
	C749.847717,216.835449 755.594421,215.982620 761.311523,214.996262 
	C765.278931,214.311768 769.263672,213.722992 773.220947,212.985672 
	C778.626160,211.978607 781.013977,216.045639 782.819580,219.567169 
	C784.898254,223.621323 785.640381,228.356033 787.003784,232.782608 
	C789.851501,242.028381 791.517334,251.503387 793.417664,260.972809 
	C795.798279,272.835266 795.856567,284.552887 795.938843,296.395691 
	C795.973022,301.311462 795.811279,306.323700 794.891663,311.130005 
	C793.267944,319.616486 791.039185,327.989777 788.954529,336.383301 
	C788.565186,337.950897 787.674622,339.396210 786.997070,340.889709 
	C783.297974,349.044464 789.837463,353.552826 793.615662,358.886078 
	C798.024048,365.108734 803.349548,370.713898 807.440674,377.121033 
	C812.660522,385.295837 817.298645,393.876190 821.674927,402.540619 
	C823.739441,406.628143 824.592529,411.324432 826.025146,415.734924 
	C827.745361,421.030518 829.809509,426.237671 831.156250,431.625244 
	C832.754211,438.017975 833.348206,444.670593 835.077271,451.019958 
	C839.985840,469.044617 837.341492,487.410034 837.918274,505.620514 
	C838.105164,511.522705 837.744751,517.513794 836.913757,523.361755 
	C835.192322,535.475464 833.242310,547.570374 830.889709,559.575684 
	C829.384338,567.257751 827.621948,575.006104 824.846008,582.294861 
	C820.792603,592.937439 815.823669,603.239258 811.052673,613.597717 
	C808.221436,619.744629 805.371277,625.932983 801.880554,631.710571 
	C798.843384,636.737671 794.962891,641.267273 791.330200,645.919250 
	C787.639404,650.645630 783.811646,655.265808 779.973450,659.873901 
	C779.779541,660.106750 778.919189,659.784607 779.379089,659.837891 
	C775.106445,664.135315 771.392090,668.709839 766.867554,672.248474 
	C757.277527,679.748779 747.582886,687.210876 737.313782,693.713684 
	C730.508118,698.023254 722.676392,700.744690 715.222473,703.989807 
	C706.254150,707.894470 697.337585,711.990112 688.134033,715.257874 
	C681.818298,717.500244 675.057129,718.496887 668.484497,720.004211 
	C663.947449,721.044556 659.267639,721.627625 654.869751,723.076965 
	C643.855652,726.706665 632.545654,728.222534 621.046021,729.103760 
	C616.108765,729.482117 611.256836,730.972839 606.148804,732.001953 
	C604.364807,736.435120 607.362183,739.732971 610.450317,742.778259 
	C617.589783,749.818787 623.166504,757.956604 626.929260,767.160645 
	C629.763245,774.093079 631.945557,781.327087 633.927002,788.561279 
	C635.367249,793.819763 635.940002,799.310974 637.012390,804.675842 
	C642.455078,831.905884 639.536438,859.448364 639.852722,886.844666 
	C640.180725,915.253967 639.110657,943.676941 639.122986,972.093689 
	C639.127197,981.801880 643.550415,989.681702 652.294556,994.672607 
	C560.312439,995.000000 468.624878,995.000000 376.468689,995.000000 
z"/>
<path fill="#000000" opacity="1.000000" stroke="none" 
	d="
M1025.000000,465.531342 
	C1024.490356,465.976624 1023.561218,466.039551 1023.535828,465.916534 
	C1023.273682,464.641876 1023.152405,463.337860 1023.000671,462.040924 
	C1021.677856,450.738098 1020.351624,439.435669 1019.046265,428.130829 
	C1018.951233,427.307587 1019.104004,426.453003 1018.985474,425.635620 
	C1018.003601,418.864380 1017.097656,412.079041 1015.937988,405.337677 
	C1015.149597,400.754486 1014.116211,396.203003 1012.966309,391.694977 
	C1011.304077,385.178375 1009.397095,378.724518 1007.682495,372.220734 
	C1007.187866,370.344666 1006.995178,368.389038 1006.667908,366.492065 
	C1006.274292,366.790100 1005.740112,367.194550 1005.205933,367.599030 
	C1005.650146,367.416809 1006.094299,367.234589 1006.538452,367.052368 
	C999.556213,347.507233 992.573975,327.962097 985.601562,308.444458 
	C985.208557,308.813568 984.784668,309.211670 984.803284,309.194214 
	C983.577698,306.312195 982.313538,303.256226 980.984619,300.228760 
	C974.952942,286.488037 968.712830,272.884735 960.265930,260.360535 
	C957.722778,256.589752 956.955261,251.666412 954.755005,247.606720 
	C952.573853,243.582199 949.556030,240.017975 947.005920,236.184814 
	C943.495728,230.908691 940.148254,225.523682 936.601624,220.272736 
	C934.007446,216.431931 931.198730,212.736282 928.497498,208.967377 
	C927.088074,207.000854 925.738770,204.990433 924.302795,203.043747 
	C919.487976,196.516647 914.873047,189.824081 909.745361,183.551437 
	C905.442200,178.287460 900.520508,173.530060 895.888672,168.533524 
	C890.262512,162.464462 884.661987,156.371552 879.033081,150.305023 
	C875.936096,146.967285 873.201843,143.116882 869.587891,140.478638 
	C864.865662,137.031464 864.560730,137.449188 863.702087,134.680374 
	C863.105652,134.764053 862.286743,135.119858 862.032898,134.879349 
	C855.507751,128.695984 849.617004,121.656715 842.408875,116.431221 
	C834.658813,110.812874 827.762634,104.342407 820.416077,98.339798 
	C814.979797,93.897995 808.367310,90.924561 802.466003,87.014351 
	C797.412537,83.665932 792.807129,79.624199 787.672363,76.419838 
	C781.639404,72.654938 775.266235,69.431236 769.008728,66.031555 
	C763.056274,62.797615 757.069153,59.627232 751.085205,56.451664 
	C746.082153,53.796593 741.111816,51.072987 736.037109,48.561310 
	C728.249207,44.706799 720.506958,40.718983 712.516113,37.327911 
	C705.121887,34.190067 697.420776,31.777355 689.865356,29.016581 
	C682.651917,26.380762 675.535645,23.442368 668.219116,21.137051 
	C662.569580,19.356983 656.647217,18.462603 650.899414,16.969486 
	C644.708740,15.361306 638.639465,13.252137 632.408447,11.841720 
	C625.498718,10.277678 618.473816,9.211659 611.484619,8.012677 
	C605.277649,6.947877 599.022400,6.145166 592.842957,4.946089 
	C588.644897,4.131490 584.540955,2.832211 580.697449,1.374839 
	C728.928772,1.000000 876.857483,1.000000 1025.000000,1.000000 
	C1025.000000,155.687500 1025.000000,310.375092 1025.000000,465.531342 
z"/>
<path fill="#000000" opacity="1.000000" stroke="none" 
	d="
M444.531342,0.999995 
	C443.846832,1.666634 442.755493,2.750333 441.530457,2.931938 
	C433.833893,4.072902 426.088440,4.887664 418.398102,6.064919 
	C413.478424,6.818031 408.587677,7.853492 403.752045,9.039863 
	C396.756409,10.756165 389.839966,12.792909 382.856232,14.560744 
	C377.879211,15.820606 372.744293,16.537384 367.863983,18.079355 
	C360.698425,20.343361 353.709259,23.161522 346.621613,25.677853 
	C342.400421,27.176516 338.105896,28.470343 333.896057,29.998732 
	C328.635010,31.908756 323.425293,33.960304 318.196808,35.959713 
	C312.072113,38.301857 305.841675,40.407372 299.857574,43.066685 
	C293.128937,46.056877 286.585175,49.475227 280.034668,52.850246 
	C275.235779,55.322773 270.484253,57.905048 265.838806,60.653427 
	C257.989532,65.297272 250.289795,70.194160 242.434082,74.826782 
	C236.459747,78.349937 230.281601,81.527885 224.314453,85.062546 
	C221.766647,86.571739 219.418747,88.474251 217.164612,90.412712 
	C210.878082,95.818893 203.201569,99.151123 197.381195,105.524002 
	C191.791855,111.643921 183.986923,115.676773 177.637344,121.182358 
	C170.054047,127.757652 162.948685,134.887924 155.702850,141.847092 
	C151.565170,145.821075 147.555740,149.928741 143.496338,153.984009 
	C138.993805,158.481918 134.356918,162.856354 130.040878,167.526962 
	C125.258705,172.701996 120.707031,178.095657 116.176682,183.496231 
	C111.325684,189.279037 106.422211,195.035034 101.895279,201.068100 
	C96.403862,208.386551 91.144287,215.890274 86.057701,223.496597 
	C83.384720,227.493713 82.191086,233.084030 78.660263,235.714005 
	C75.793808,237.849106 76.243134,240.949692 73.847809,243.042831 
	C71.160675,245.390976 70.093582,249.583786 68.293617,252.959061 
	C66.542801,256.242157 64.857376,259.566010 62.964066,262.765961 
	C59.421722,268.753082 55.487671,274.523529 52.214363,280.650055 
	C49.574326,285.591278 47.570786,290.884979 45.460480,296.093475 
	C43.182072,301.716858 41.183800,307.453613 38.912182,313.079926 
	C37.781799,315.879639 36.313465,318.542877 35.078934,321.100220 
	C35.221962,321.297546 34.877308,320.822052 34.636692,320.490082 
	C31.842196,329.149628 29.051720,337.796692 26.360243,346.136993 
	C26.238316,345.917389 25.953640,345.404724 25.434704,344.470184 
	C24.787233,348.815613 24.283340,352.197449 23.774788,355.610565 
	C23.260118,355.211029 22.733448,354.802185 22.541010,354.652802 
	C18.634768,369.819824 14.710950,385.055115 10.880537,399.927704 
	C11.280631,400.207306 10.726714,399.820221 10.745011,399.833008 
	C9.262299,407.924347 7.667570,416.181091 6.280617,424.472626 
	C5.874474,426.900635 6.233366,429.448303 5.940309,431.905151 
	C5.038141,439.468445 4.021968,447.018829 2.962340,454.561920 
	C2.814816,455.612091 2.174349,456.593048 1.381038,457.303040 
	C1.000000,305.073883 1.000000,153.147781 1.000000,1.000000 
	C148.687485,1.000000 296.375092,1.000000 444.531342,0.999995 
z"/>
<path fill="#000000" opacity="1.000000" stroke="none" 
	d="
M684.468628,995.000000 
	C685.781189,993.672424 687.392822,991.960815 689.373962,991.086121 
	C696.559448,987.913574 703.859009,984.997559 711.136780,982.036804 
	C713.794922,980.955505 716.603638,980.211914 719.186340,978.983459 
	C729.521851,974.067383 739.815796,969.062744 750.086121,964.011597 
	C759.497803,959.382812 769.166565,955.167542 778.152039,949.813477 
	C786.327637,944.942078 793.637268,938.639282 801.511902,933.234558 
	C809.694641,927.618347 818.337219,922.649658 826.330688,916.786987 
	C833.194153,911.753052 839.488525,905.929382 845.914917,900.318115 
	C850.371826,896.426575 854.641968,892.319885 858.967102,888.278931 
	C868.341187,879.520752 878.001465,871.039917 886.948914,861.864624 
	C892.527588,856.143860 896.945435,849.302185 902.046448,843.096985 
	C903.388428,841.464478 905.636536,840.569092 906.949036,838.921387 
	C912.404480,832.072815 917.728149,825.115784 922.959778,818.094055 
	C925.188477,815.102783 926.547485,809.972961 929.251648,809.218079 
	C932.370544,808.347473 931.035095,805.492554 933.428528,804.519836 
	C935.430054,803.706604 936.171997,800.027039 937.715149,797.784302 
	C939.135864,795.719543 941.087463,794.009338 942.427307,791.902588 
	C943.886536,789.608398 944.779297,786.961365 946.148682,784.601379 
	C950.383484,777.303101 954.920532,770.174377 958.982178,762.783020 
	C964.497131,752.746887 969.718079,742.548035 974.989990,732.379944 
	C977.479065,727.579224 979.793274,722.687805 982.119812,717.973083 
	C981.865051,717.629456 982.214417,718.100647 982.143799,718.005371 
	C985.238892,711.090515 988.536499,703.870178 991.677307,696.582153 
	C992.300171,695.136658 992.126465,693.363708 992.652649,691.857910 
	C995.558960,683.540344 998.781372,675.327271 1001.479431,666.944458 
	C1003.930054,659.330750 1005.993408,651.582581 1007.962830,643.826416 
	C1010.133118,635.279114 1012.100464,626.676514 1013.966431,618.056885 
	C1015.158508,612.549683 1015.243530,606.684143 1017.179016,601.483154 
	C1020.480591,592.611389 1019.767151,583.387573 1021.028748,574.352905 
	C1021.960388,567.680725 1023.156921,561.045532 1024.617676,554.696899 
	C1025.000000,701.584473 1025.000000,848.169006 1025.000000,995.000000 
	C911.645874,995.000000 798.291626,995.000000 684.468628,995.000000 
z"/>
<path fill="#000000" opacity="1.000000" stroke="none" 
	d="
M1.000001,563.468628 
	C1.666644,563.981873 2.778049,564.899475 2.930755,565.955688 
	C4.369480,575.906921 5.605952,585.887085 6.978982,595.848206 
	C8.109170,604.047485 9.345329,612.232178 10.520396,620.326050 
	C10.724189,620.183960 11.282320,619.794861 11.386971,619.721863 
	C12.911740,627.636108 14.202082,635.786438 16.110441,643.789429 
	C17.702251,650.464905 19.817698,657.037415 22.068504,663.528137 
	C24.480776,670.484497 27.381187,677.270020 29.959452,684.170837 
	C32.362213,690.601929 34.341492,697.205200 37.015656,703.517273 
	C40.287643,711.240417 44.089893,718.738831 47.661140,726.335266 
	C49.781303,730.844971 51.760860,735.427124 54.042698,739.853455 
	C60.384327,752.154907 66.675072,764.488464 73.335220,776.617493 
	C77.231125,783.712402 81.509705,790.639832 86.143555,797.274231 
	C90.334862,803.274963 95.376961,808.673645 99.802094,814.520874 
	C106.056923,822.785706 112.005463,831.282715 118.279007,839.532837 
	C119.749077,841.466125 122.230057,842.604492 123.846741,844.456909 
	C130.655075,852.258301 137.031677,860.454956 144.110870,867.995728 
	C150.097366,874.372498 156.819000,880.061157 163.242325,886.025269 
	C168.722183,891.113220 173.766296,896.846191 179.858948,901.054993 
	C187.909241,906.616089 194.973297,913.172424 202.350540,919.475342 
	C208.116653,924.401855 215.079651,927.916382 221.451706,932.147339 
	C230.012939,937.832092 238.320786,943.927124 247.103104,949.241699 
	C255.359085,954.237915 264.053467,958.519287 272.622009,962.986633 
	C282.132935,967.945435 291.618347,972.973328 301.310760,977.556824 
	C307.373444,980.423767 313.822083,982.466003 320.053680,984.986694 
	C327.591125,988.035583 335.082184,991.199158 342.296661,994.656494 
	C228.397675,995.000000 114.795341,995.000000 1.000000,995.000000 
	C1.000000,851.312500 1.000000,707.624878 1.000001,563.468628 
z"/>
</svg>